<svg xmlns="http://www.w3.org/2000/svg" xmlns:xlink="http://www.w3.org/1999/xlink" width="500" zoomAndPan="magnify" viewBox="0 0 375 374.999991" height="500" preserveAspectRatio="xMidYMid meet" version="1.0"><defs><g/><clipPath id="c00a265009"><path d="M 91 157.746094 L 130 157.746094 L 130 188 L 91 188 Z M 91 157.746094 " clip-rule="nonzero"/></clipPath><clipPath id="2e8015bd1f"><path d="M 82.191406 177 L 132.871094 177 L 132.871094 225.175781 L 82.191406 225.175781 Z M 82.191406 177 " clip-rule="nonzero"/></clipPath><clipPath id="9132ebbb7c"><path d="M 73.269531 200.523438 L 92.589844 200.523438 L 92.589844 219.84375 L 73.269531 219.84375 Z M 73.269531 200.523438 " clip-rule="nonzero"/></clipPath><clipPath id="182f1f3248"><path d="M 78.097656 204.351562 L 89.84375 204.351562 L 89.84375 216.09375 L 78.097656 216.09375 Z M 78.097656 204.351562 " clip-rule="nonzero"/></clipPath><clipPath id="3d089dbc23"><path d="M 88.476562 154.539062 L 106.28125 154.539062 L 106.28125 172.34375 L 88.476562 172.34375 Z M 88.476562 154.539062 " clip-rule="nonzero"/></clipPath><clipPath id="803326ce9d"><path d="M 91.578125 157.746094 L 103.320312 157.746094 L 103.320312 169.488281 L 91.578125 169.488281 Z M 91.578125 157.746094 " clip-rule="nonzero"/></clipPath></defs><g fill="#1b3652" fill-opacity="1"><g transform="translate(138.566989, 200.820355)"><g><path d="M 2.1875 0 L 2.1875 -0.65625 C 2.96875 -0.90625 3.472656 -1.425781 3.703125 -2.21875 C 3.941406 -3.007812 4.0625 -4.242188 4.0625 -5.921875 L 4.0625 -26.734375 C 4.0625 -28.410156 3.941406 -29.644531 3.703125 -30.4375 C 3.472656 -31.238281 2.96875 -31.757812 2.1875 -32 L 2.1875 -32.65625 L 24.734375 -32.65625 L 25.046875 -27.484375 L 24.453125 -27.34375 C 23.578125 -28.988281 22.523438 -30.144531 21.296875 -30.8125 C 20.066406 -31.476562 18.300781 -31.8125 16 -31.8125 L 9 -31.8125 L 9 -18.296875 L 12.78125 -18.296875 C 14.675781 -18.296875 16.164062 -18.414062 17.25 -18.65625 C 18.34375 -18.90625 19.15625 -19.296875 19.6875 -19.828125 C 20.21875 -20.359375 20.609375 -21.023438 20.859375 -21.828125 L 21.515625 -21.828125 L 21.515625 -13.90625 L 20.859375 -13.90625 C 20.609375 -14.707031 20.21875 -15.375 19.6875 -15.90625 C 19.15625 -16.4375 18.34375 -16.828125 17.25 -17.078125 C 16.164062 -17.328125 14.675781 -17.453125 12.78125 -17.453125 L 9 -17.453125 L 9 -5.921875 C 9 -4.242188 9.113281 -3.007812 9.34375 -2.21875 C 9.582031 -1.425781 10.09375 -0.90625 10.875 -0.65625 L 10.875 0 Z M 2.1875 0 "/></g></g></g><g fill="#1b3652" fill-opacity="1"><g transform="translate(171.127554, 200.820355)"><g><path d="M 2.1875 0 L 2.1875 -0.65625 C 2.96875 -0.90625 3.472656 -1.425781 3.703125 -2.21875 C 3.941406 -3.007812 4.0625 -4.242188 4.0625 -5.921875 L 4.0625 -26.734375 C 4.0625 -28.410156 3.941406 -29.644531 3.703125 -30.4375 C 3.472656 -31.238281 2.96875 -31.757812 2.1875 -32 L 2.1875 -32.65625 L 10.875 -32.65625 L 10.875 -32 C 10.09375 -31.757812 9.582031 -31.238281 9.34375 -30.4375 C 9.113281 -29.644531 9 -28.410156 9 -26.734375 L 9 -5.921875 C 9 -4.242188 9.113281 -3.007812 9.34375 -2.21875 C 9.582031 -1.425781 10.09375 -0.90625 10.875 -0.65625 L 10.875 0 Z M 2.1875 0 "/></g></g></g><g fill="#1b3652" fill-opacity="1"><g transform="translate(190.580501, 200.820355)"><g><path d="M 13.34375 0.46875 C 10.945312 0.46875 8.722656 0.132812 6.671875 -0.53125 C 4.617188 -1.207031 3 -1.976562 1.8125 -2.84375 L 1.640625 -9.84375 L 2.234375 -9.9375 C 2.890625 -8.164062 3.785156 -6.570312 4.921875 -5.15625 C 6.054688 -3.738281 7.429688 -2.609375 9.046875 -1.765625 C 10.671875 -0.929688 12.507812 -0.515625 14.5625 -0.515625 C 15.644531 -0.515625 16.648438 -0.738281 17.578125 -1.1875 C 18.515625 -1.632812 19.28125 -2.296875 19.875 -3.171875 C 20.46875 -4.046875 20.765625 -5.117188 20.765625 -6.390625 C 20.765625 -7.546875 20.4375 -8.550781 19.78125 -9.40625 C 19.125 -10.257812 18.289062 -11.003906 17.28125 -11.640625 C 16.269531 -12.273438 15.203125 -12.832031 14.078125 -13.3125 C 12.960938 -13.800781 11.941406 -14.234375 11.015625 -14.609375 C 9.421875 -15.285156 7.957031 -15.96875 6.625 -16.65625 C 5.289062 -17.34375 4.21875 -18.222656 3.40625 -19.296875 C 2.59375 -20.367188 2.1875 -21.804688 2.1875 -23.609375 C 2.1875 -26.503906 3.265625 -28.789062 5.421875 -30.46875 C 7.585938 -32.144531 10.507812 -32.984375 14.1875 -32.984375 C 15.925781 -32.984375 17.550781 -32.8125 19.0625 -32.46875 C 20.570312 -32.125 21.929688 -31.644531 23.140625 -31.03125 L 23.328125 -24.96875 L 22.8125 -24.78125 C 21.851562 -27.164062 20.445312 -28.992188 18.59375 -30.265625 C 16.738281 -31.546875 14.675781 -32.1875 12.40625 -32.1875 C 10.539062 -32.1875 8.960938 -31.664062 7.671875 -30.625 C 6.378906 -29.582031 5.734375 -28.144531 5.734375 -26.3125 C 5.734375 -25.289062 5.988281 -24.394531 6.5 -23.625 C 7.019531 -22.863281 7.707031 -22.203125 8.5625 -21.640625 C 9.414062 -21.085938 10.332031 -20.597656 11.3125 -20.171875 C 12.289062 -19.753906 13.25 -19.359375 14.1875 -18.984375 C 15.363281 -18.523438 16.566406 -18.03125 17.796875 -17.5 C 19.023438 -16.96875 20.148438 -16.34375 21.171875 -15.625 C 22.203125 -14.914062 23.03125 -14.0625 23.65625 -13.0625 C 24.28125 -12.070312 24.59375 -10.875 24.59375 -9.46875 C 24.59375 -7.882812 24.265625 -6.46875 23.609375 -5.21875 C 22.953125 -3.976562 22.078125 -2.9375 20.984375 -2.09375 C 19.898438 -1.257812 18.6875 -0.625 17.34375 -0.1875 C 16.007812 0.25 14.675781 0.46875 13.34375 0.46875 Z M 13.34375 0.46875 "/></g></g></g><g fill="#1b3652" fill-opacity="1"><g transform="translate(222.767893, 200.820355)"><g><path d="M 20.53125 0.46875 C 16.832031 0.46875 13.628906 -0.160156 10.921875 -1.421875 C 8.210938 -2.679688 6.132812 -4.515625 4.6875 -6.921875 C 3.238281 -9.335938 2.515625 -12.285156 2.515625 -15.765625 C 2.515625 -18.128906 2.957031 -20.34375 3.84375 -22.40625 C 4.726562 -24.476562 6.003906 -26.304688 7.671875 -27.890625 C 9.335938 -29.484375 11.328125 -30.726562 13.640625 -31.625 C 15.960938 -32.53125 18.554688 -32.984375 21.421875 -32.984375 C 22.566406 -32.984375 23.816406 -32.90625 25.171875 -32.75 C 26.523438 -32.59375 27.816406 -32.351562 29.046875 -32.03125 C 30.273438 -31.707031 31.289062 -31.265625 32.09375 -30.703125 L 32.28125 -24.546875 L 31.71875 -24.40625 C 31.101562 -26.019531 30.1875 -27.394531 28.96875 -28.53125 C 27.757812 -29.664062 26.398438 -30.539062 24.890625 -31.15625 C 23.378906 -31.78125 21.816406 -32.09375 20.203125 -32.09375 C 17.710938 -32.09375 15.507812 -31.546875 13.59375 -30.453125 C 11.6875 -29.367188 10.1875 -27.773438 9.09375 -25.671875 C 8.007812 -23.578125 7.46875 -20.976562 7.46875 -17.875 C 7.46875 -15.632812 7.789062 -13.472656 8.4375 -11.390625 C 9.09375 -9.304688 10.035156 -7.445312 11.265625 -5.8125 C 12.492188 -4.175781 14 -2.882812 15.78125 -1.9375 C 17.570312 -0.988281 19.601562 -0.515625 21.875 -0.515625 C 24.488281 -0.515625 26.679688 -1.242188 28.453125 -2.703125 C 30.234375 -4.171875 31.539062 -6.113281 32.375 -8.53125 L 32.984375 -8.4375 L 32.234375 -1.765625 C 30.992188 -1.210938 29.445312 -0.703125 27.59375 -0.234375 C 25.75 0.234375 23.394531 0.46875 20.53125 0.46875 Z M 20.53125 0.46875 "/></g></g></g><g fill="#1b3652" fill-opacity="1"><g transform="translate(264.191264, 200.820355)"><g><path d="M 2.1875 0 L 2.1875 -0.65625 C 2.96875 -0.90625 3.472656 -1.425781 3.703125 -2.21875 C 3.941406 -3.007812 4.0625 -4.242188 4.0625 -5.921875 L 4.0625 -26.734375 C 4.0625 -28.410156 3.941406 -29.644531 3.703125 -30.4375 C 3.472656 -31.238281 2.96875 -31.757812 2.1875 -32 L 2.1875 -32.65625 L 10.875 -32.65625 L 10.875 -32 C 10.09375 -31.757812 9.582031 -31.238281 9.34375 -30.4375 C 9.113281 -29.644531 9 -28.410156 9 -26.734375 L 9 -5.921875 C 9 -4.242188 9.113281 -3.007812 9.34375 -2.21875 C 9.582031 -1.425781 10.09375 -0.90625 10.875 -0.65625 L 10.875 0 Z M 2.1875 0 "/></g></g></g><g fill="#1b3652" fill-opacity="1"><g transform="translate(283.644205, 200.820355)"><g><path d="M 8.765625 0 L 8.765625 -0.65625 C 9.546875 -0.90625 10.050781 -1.425781 10.28125 -2.21875 C 10.519531 -3.007812 10.640625 -4.242188 10.640625 -5.921875 L 10.640625 -31.8125 L 9.1875 -31.8125 C 7.101562 -31.8125 5.46875 -31.460938 4.28125 -30.765625 C 3.101562 -30.066406 2.082031 -28.785156 1.21875 -26.921875 L 0.65625 -27.015625 L 0.9375 -32.65625 L 25.234375 -32.65625 L 25.515625 -27.015625 L 24.96875 -26.921875 C 24.09375 -28.785156 23.0625 -30.066406 21.875 -30.765625 C 20.695312 -31.460938 19.066406 -31.8125 16.984375 -31.8125 L 15.625 -31.8125 L 15.625 -5.921875 C 15.625 -4.242188 15.738281 -3.007812 15.96875 -2.21875 C 16.207031 -1.425781 16.71875 -0.90625 17.5 -0.65625 L 17.5 0 Z M 8.765625 0 "/></g></g></g><g clip-path="url(#c00a265009)"><path fill="#169d53" d="M 91.007812 169.484375 C 108.933594 169.660156 123.90625 177.355469 128.058594 187.703125 C 128.804688 185.839844 129.210938 183.890625 129.210938 181.886719 C 129.210938 168.734375 112.160156 158.058594 91.007812 157.855469 Z M 91.007812 169.484375 " fill-opacity="1" fill-rule="nonzero"/></g><g clip-path="url(#2e8015bd1f)"><path fill="#169d53" d="M 130.136719 188.042969 C 126.675781 195.925781 116.734375 202.21875 103.945312 204.734375 L 104.53125 194.484375 L 82.222656 211.835938 L 102.785156 225.117188 L 103.277344 216.496094 C 116.339844 214.078125 126.554688 207.738281 130.109375 199.757812 L 130.113281 199.765625 C 130.125 199.742188 130.132812 199.710938 130.144531 199.6875 C 130.445312 199 130.691406 198.296875 130.894531 197.589844 C 132.894531 191.078125 132.378906 183.054688 130.925781 177.953125 L 130.898438 177.914062 C 132.246094 182.898438 130.738281 186.523438 130.136719 188.042969 Z M 130.136719 188.042969 " fill-opacity="1" fill-rule="nonzero"/></g><g fill="#1b3652" fill-opacity="1"><g transform="translate(51.515567, 206.353807)"><g><path d="M 5.265625 -48.9375 L 44.8125 -48.9375 L 44.8125 -37.203125 L 20.984375 -37.203125 L 20.984375 -28.8125 L 41.46875 -28.8125 L 41.46875 -17.5625 L 20.984375 -17.5625 L 20.984375 0 L 5.265625 0 Z M 5.265625 -48.9375 "/></g></g></g><g clip-path="url(#9132ebbb7c)"><path fill="#ffffff" d="M 92.589844 210.183594 C 92.589844 210.816406 92.527344 211.445312 92.402344 212.066406 C 92.277344 212.691406 92.097656 213.292969 91.851562 213.878906 C 91.609375 214.464844 91.3125 215.023438 90.960938 215.550781 C 90.609375 216.078125 90.207031 216.566406 89.757812 217.015625 C 89.3125 217.460938 88.824219 217.863281 88.296875 218.214844 C 87.769531 218.566406 87.210938 218.863281 86.625 219.109375 C 86.039062 219.351562 85.433594 219.535156 84.8125 219.65625 C 84.191406 219.78125 83.5625 219.84375 82.929688 219.84375 C 82.292969 219.84375 81.667969 219.78125 81.042969 219.65625 C 80.421875 219.535156 79.816406 219.351562 79.230469 219.109375 C 78.644531 218.863281 78.089844 218.566406 77.5625 218.214844 C 77.035156 217.863281 76.546875 217.460938 76.097656 217.015625 C 75.648438 216.566406 75.25 216.078125 74.898438 215.550781 C 74.542969 215.023438 74.246094 214.464844 74.003906 213.878906 C 73.761719 213.292969 73.578125 212.691406 73.453125 212.066406 C 73.332031 211.445312 73.269531 210.816406 73.269531 210.183594 C 73.269531 209.550781 73.332031 208.921875 73.453125 208.300781 C 73.578125 207.675781 73.761719 207.074219 74.003906 206.488281 C 74.246094 205.902344 74.542969 205.34375 74.898438 204.816406 C 75.25 204.289062 75.648438 203.800781 76.097656 203.351562 C 76.546875 202.90625 77.035156 202.503906 77.5625 202.152344 C 78.089844 201.800781 78.644531 201.5 79.230469 201.257812 C 79.816406 201.015625 80.421875 200.832031 81.042969 200.710938 C 81.667969 200.585938 82.292969 200.523438 82.929688 200.523438 C 83.5625 200.523438 84.191406 200.585938 84.8125 200.710938 C 85.433594 200.832031 86.039062 201.015625 86.625 201.257812 C 87.210938 201.5 87.769531 201.800781 88.296875 202.152344 C 88.824219 202.503906 89.3125 202.90625 89.757812 203.351562 C 90.207031 203.800781 90.609375 204.289062 90.960938 204.816406 C 91.3125 205.34375 91.609375 205.902344 91.851562 206.488281 C 92.097656 207.074219 92.277344 207.675781 92.402344 208.300781 C 92.527344 208.921875 92.589844 209.550781 92.589844 210.183594 Z M 92.589844 210.183594 " fill-opacity="1" fill-rule="nonzero"/></g><g clip-path="url(#182f1f3248)"><path fill="#169d53" d="M 89.882812 210.242188 C 89.882812 210.628906 89.847656 211.011719 89.769531 211.390625 C 89.695312 211.773438 89.582031 212.140625 89.433594 212.496094 C 89.285156 212.855469 89.105469 213.195312 88.890625 213.515625 C 88.675781 213.839844 88.429688 214.136719 88.15625 214.410156 C 87.882812 214.683594 87.585938 214.925781 87.265625 215.140625 C 86.941406 215.355469 86.605469 215.539062 86.246094 215.6875 C 85.890625 215.835938 85.519531 215.945312 85.140625 216.023438 C 84.761719 216.097656 84.378906 216.136719 83.992188 216.136719 C 83.605469 216.136719 83.222656 216.097656 82.84375 216.023438 C 82.460938 215.945312 82.09375 215.835938 81.738281 215.6875 C 81.378906 215.539062 81.039062 215.355469 80.71875 215.140625 C 80.394531 214.925781 80.097656 214.683594 79.824219 214.410156 C 79.550781 214.136719 79.308594 213.839844 79.09375 213.515625 C 78.878906 213.195312 78.695312 212.855469 78.546875 212.496094 C 78.398438 212.140625 78.289062 211.773438 78.210938 211.390625 C 78.136719 211.011719 78.097656 210.628906 78.097656 210.242188 C 78.097656 209.855469 78.136719 209.472656 78.210938 209.09375 C 78.289062 208.714844 78.398438 208.34375 78.546875 207.988281 C 78.695312 207.628906 78.878906 207.289062 79.09375 206.96875 C 79.308594 206.648438 79.550781 206.351562 79.824219 206.078125 C 80.097656 205.804688 80.394531 205.558594 80.71875 205.34375 C 81.039062 205.128906 81.378906 204.945312 81.738281 204.800781 C 82.09375 204.652344 82.460938 204.539062 82.84375 204.464844 C 83.222656 204.386719 83.605469 204.351562 83.992188 204.351562 C 84.378906 204.351562 84.761719 204.386719 85.140625 204.464844 C 85.519531 204.539062 85.890625 204.652344 86.246094 204.800781 C 86.605469 204.945312 86.941406 205.128906 87.265625 205.34375 C 87.585938 205.558594 87.882812 205.804688 88.15625 206.078125 C 88.429688 206.351562 88.675781 206.648438 88.890625 206.96875 C 89.105469 207.289062 89.285156 207.628906 89.433594 207.988281 C 89.582031 208.34375 89.695312 208.714844 89.769531 209.09375 C 89.847656 209.472656 89.882812 209.855469 89.882812 210.242188 Z M 89.882812 210.242188 " fill-opacity="1" fill-rule="nonzero"/></g><g clip-path="url(#3d089dbc23)"><path fill="#ffffff" d="M 106.28125 163.441406 C 106.28125 164.027344 106.222656 164.605469 106.109375 165.179688 C 105.996094 165.75 105.828125 166.308594 105.601562 166.847656 C 105.378906 167.386719 105.105469 167.902344 104.78125 168.386719 C 104.457031 168.875 104.085938 169.324219 103.671875 169.734375 C 103.261719 170.148438 102.8125 170.519531 102.324219 170.84375 C 101.839844 171.167969 101.324219 171.441406 100.785156 171.664062 C 100.246094 171.890625 99.6875 172.058594 99.117188 172.171875 C 98.542969 172.285156 97.964844 172.34375 97.378906 172.34375 C 96.792969 172.34375 96.214844 172.285156 95.640625 172.171875 C 95.070312 172.058594 94.511719 171.890625 93.972656 171.664062 C 93.433594 171.441406 92.917969 171.167969 92.433594 170.84375 C 91.949219 170.519531 91.496094 170.148438 91.085938 169.734375 C 90.671875 169.324219 90.300781 168.875 89.976562 168.386719 C 89.652344 167.902344 89.378906 167.386719 89.15625 166.847656 C 88.929688 166.308594 88.761719 165.75 88.648438 165.179688 C 88.535156 164.605469 88.476562 164.027344 88.476562 163.441406 C 88.476562 162.855469 88.535156 162.277344 88.648438 161.703125 C 88.761719 161.132812 88.929688 160.574219 89.15625 160.035156 C 89.378906 159.496094 89.652344 158.980469 89.976562 158.496094 C 90.300781 158.007812 90.671875 157.558594 91.085938 157.148438 C 91.496094 156.734375 91.949219 156.363281 92.433594 156.039062 C 92.917969 155.714844 93.433594 155.441406 93.972656 155.21875 C 94.511719 154.992188 95.070312 154.824219 95.640625 154.710938 C 96.214844 154.597656 96.792969 154.539062 97.378906 154.539062 C 97.964844 154.539062 98.542969 154.597656 99.117188 154.710938 C 99.6875 154.824219 100.246094 154.992188 100.785156 155.21875 C 101.324219 155.441406 101.839844 155.714844 102.324219 156.039062 C 102.8125 156.363281 103.261719 156.734375 103.671875 157.148438 C 104.085938 157.558594 104.457031 158.007812 104.78125 158.496094 C 105.105469 158.980469 105.378906 159.496094 105.601562 160.035156 C 105.828125 160.574219 105.996094 161.132812 106.109375 161.703125 C 106.222656 162.277344 106.28125 162.855469 106.28125 163.441406 Z M 106.28125 163.441406 " fill-opacity="1" fill-rule="nonzero"/></g><g clip-path="url(#803326ce9d)"><path fill="#169d53" d="M 103.363281 163.636719 C 103.363281 164.023438 103.324219 164.40625 103.25 164.789062 C 103.171875 165.167969 103.0625 165.535156 102.914062 165.894531 C 102.765625 166.25 102.582031 166.589844 102.367188 166.910156 C 102.152344 167.234375 101.910156 167.53125 101.636719 167.804688 C 101.363281 168.078125 101.066406 168.320312 100.742188 168.535156 C 100.421875 168.75 100.082031 168.933594 99.722656 169.082031 C 99.367188 169.230469 99 169.339844 98.621094 169.417969 C 98.238281 169.492188 97.855469 169.53125 97.46875 169.53125 C 97.082031 169.53125 96.699219 169.492188 96.320312 169.417969 C 95.941406 169.339844 95.574219 169.230469 95.214844 169.082031 C 94.855469 168.933594 94.519531 168.75 94.195312 168.535156 C 93.875 168.320312 93.578125 168.078125 93.304688 167.804688 C 93.03125 167.53125 92.785156 167.234375 92.570312 166.910156 C 92.355469 166.589844 92.175781 166.25 92.027344 165.894531 C 91.878906 165.535156 91.765625 165.167969 91.691406 164.789062 C 91.613281 164.40625 91.578125 164.023438 91.578125 163.636719 C 91.578125 163.25 91.613281 162.867188 91.691406 162.488281 C 91.765625 162.109375 91.878906 161.742188 92.027344 161.382812 C 92.175781 161.027344 92.355469 160.6875 92.570312 160.363281 C 92.785156 160.042969 93.03125 159.746094 93.304688 159.472656 C 93.578125 159.199219 93.875 158.953125 94.195312 158.738281 C 94.519531 158.523438 94.855469 158.34375 95.214844 158.195312 C 95.574219 158.046875 95.941406 157.933594 96.320312 157.859375 C 96.699219 157.785156 97.082031 157.746094 97.46875 157.746094 C 97.855469 157.746094 98.238281 157.785156 98.621094 157.859375 C 99 157.933594 99.367188 158.046875 99.722656 158.195312 C 100.082031 158.34375 100.421875 158.523438 100.742188 158.738281 C 101.066406 158.953125 101.363281 159.199219 101.636719 159.472656 C 101.910156 159.746094 102.152344 160.042969 102.367188 160.363281 C 102.582031 160.6875 102.765625 161.027344 102.914062 161.382812 C 103.0625 161.742188 103.171875 162.109375 103.25 162.488281 C 103.324219 162.867188 103.363281 163.25 103.363281 163.636719 Z M 103.363281 163.636719 " fill-opacity="1" fill-rule="nonzero"/></g></svg>