<svg xmlns="http://www.w3.org/2000/svg" xmlns:xlink="http://www.w3.org/1999/xlink" width="500" zoomAndPan="magnify" viewBox="0 0 375 374.999991" height="500" preserveAspectRatio="xMidYMid meet" version="1.0"><defs><g/><clipPath id="5b9ef75af6"><path d="M 185 138.023438 L 261 138.023438 L 261 198 L 185 198 Z M 185 138.023438 " clip-rule="nonzero"/></clipPath><clipPath id="986ba769fb"><path d="M 167.695312 177 L 267 177 L 267 271.523438 L 167.695312 271.523438 Z M 167.695312 177 " clip-rule="nonzero"/></clipPath><clipPath id="d96cf5ab6d"><path d="M 150.03125 222.714844 L 188.28125 222.714844 L 188.28125 260.964844 L 150.03125 260.964844 Z M 150.03125 222.714844 " clip-rule="nonzero"/></clipPath><clipPath id="d0a9e6f23c"><path d="M 159.59375 230.292969 L 182.84375 230.292969 L 182.84375 253.542969 L 159.59375 253.542969 Z M 159.59375 230.292969 " clip-rule="nonzero"/></clipPath><clipPath id="8416d7989b"><path d="M 180.140625 131.675781 L 215.390625 131.675781 L 215.390625 166.925781 L 180.140625 166.925781 Z M 180.140625 131.675781 " clip-rule="nonzero"/></clipPath><clipPath id="c5f3d5ffd2"><path d="M 186.277344 138.023438 L 209.527344 138.023438 L 209.527344 161.273438 L 186.277344 161.273438 Z M 186.277344 138.023438 " clip-rule="nonzero"/></clipPath></defs><g clip-path="url(#5b9ef75af6)"><path fill="#169d53" d="M 185.148438 161.265625 C 220.640625 161.609375 250.285156 176.84375 258.507812 197.332031 C 259.988281 193.644531 260.785156 189.789062 260.785156 185.816406 C 260.785156 159.78125 227.027344 138.644531 185.148438 138.238281 Z M 185.148438 161.265625 " fill-opacity="1" fill-rule="nonzero"/></g><g clip-path="url(#986ba769fb)"><path fill="#169d53" d="M 262.625 198.007812 C 255.769531 213.613281 236.082031 226.070312 210.765625 231.050781 L 211.921875 210.761719 L 167.757812 245.117188 L 208.464844 271.40625 L 209.441406 254.339844 C 235.308594 249.554688 255.527344 237.003906 262.566406 221.203125 L 262.574219 221.21875 C 262.59375 221.167969 262.609375 221.109375 262.632812 221.058594 C 263.230469 219.699219 263.722656 218.308594 264.121094 216.90625 C 268.082031 204.019531 267.058594 188.132812 264.179688 178.03125 L 264.132812 177.953125 C 266.796875 187.824219 263.816406 195 262.625 198.007812 Z M 262.625 198.007812 " fill-opacity="1" fill-rule="nonzero"/></g><g fill="#1b3652" fill-opacity="1"><g transform="translate(106.961071, 234.259574)"><g><path d="M 10.421875 -96.875 L 88.71875 -96.875 L 88.71875 -73.640625 L 41.546875 -73.640625 L 41.546875 -57.03125 L 82.09375 -57.03125 L 82.09375 -34.78125 L 41.546875 -34.78125 L 41.546875 0 L 10.421875 0 Z M 10.421875 -96.875 "/></g></g></g><g clip-path="url(#d96cf5ab6d)"><path fill="#ffffff" d="M 188.28125 241.839844 C 188.28125 242.46875 188.25 243.09375 188.1875 243.714844 C 188.125 244.339844 188.035156 244.957031 187.914062 245.574219 C 187.789062 246.1875 187.636719 246.792969 187.457031 247.394531 C 187.273438 247.992188 187.0625 248.582031 186.824219 249.160156 C 186.585938 249.738281 186.316406 250.304688 186.023438 250.855469 C 185.726562 251.410156 185.40625 251.945312 185.058594 252.464844 C 184.707031 252.988281 184.335938 253.488281 183.9375 253.972656 C 183.542969 254.457031 183.121094 254.921875 182.679688 255.363281 C 182.234375 255.808594 181.773438 256.226562 181.289062 256.625 C 180.804688 257.023438 180.300781 257.394531 179.78125 257.742188 C 179.257812 258.089844 178.722656 258.414062 178.171875 258.707031 C 177.617188 259.003906 177.050781 259.269531 176.472656 259.511719 C 175.894531 259.75 175.304688 259.960938 174.707031 260.144531 C 174.109375 260.324219 173.5 260.476562 172.886719 260.597656 C 172.273438 260.722656 171.652344 260.8125 171.03125 260.875 C 170.40625 260.933594 169.78125 260.964844 169.15625 260.964844 C 168.527344 260.964844 167.902344 260.933594 167.28125 260.875 C 166.65625 260.8125 166.039062 260.722656 165.425781 260.597656 C 164.808594 260.476562 164.203125 260.324219 163.605469 260.144531 C 163.003906 259.960938 162.414062 259.75 161.835938 259.511719 C 161.257812 259.269531 160.691406 259.003906 160.140625 258.707031 C 159.585938 258.414062 159.050781 258.089844 158.53125 257.742188 C 158.007812 257.394531 157.507812 257.023438 157.023438 256.625 C 156.539062 256.226562 156.074219 255.808594 155.632812 255.363281 C 155.1875 254.921875 154.769531 254.457031 154.371094 253.972656 C 153.972656 253.488281 153.601562 252.988281 153.253906 252.464844 C 152.90625 251.945312 152.585938 251.410156 152.289062 250.855469 C 151.992188 250.304688 151.726562 249.738281 151.488281 249.160156 C 151.246094 248.582031 151.035156 247.992188 150.855469 247.394531 C 150.671875 246.792969 150.519531 246.1875 150.398438 245.574219 C 150.277344 244.957031 150.183594 244.339844 150.121094 243.714844 C 150.0625 243.09375 150.03125 242.46875 150.03125 241.839844 C 150.03125 241.214844 150.0625 240.589844 150.121094 239.96875 C 150.183594 239.34375 150.277344 238.726562 150.398438 238.109375 C 150.519531 237.496094 150.671875 236.890625 150.855469 236.289062 C 151.035156 235.691406 151.246094 235.101562 151.488281 234.523438 C 151.726562 233.945312 151.992188 233.378906 152.289062 232.828125 C 152.585938 232.273438 152.90625 231.738281 153.253906 231.214844 C 153.601562 230.695312 153.972656 230.191406 154.371094 229.707031 C 154.769531 229.226562 155.1875 228.761719 155.632812 228.316406 C 156.074219 227.875 156.539062 227.457031 157.023438 227.058594 C 157.507812 226.660156 158.007812 226.289062 158.53125 225.941406 C 159.050781 225.59375 159.585938 225.269531 160.140625 224.976562 C 160.691406 224.679688 161.257812 224.414062 161.835938 224.171875 C 162.414062 223.933594 163.003906 223.722656 163.605469 223.539062 C 164.203125 223.359375 164.808594 223.207031 165.425781 223.085938 C 166.039062 222.960938 166.65625 222.871094 167.28125 222.808594 C 167.902344 222.746094 168.527344 222.714844 169.15625 222.714844 C 169.78125 222.714844 170.40625 222.746094 171.03125 222.808594 C 171.652344 222.871094 172.273438 222.960938 172.886719 223.085938 C 173.5 223.207031 174.109375 223.359375 174.707031 223.539062 C 175.304688 223.722656 175.894531 223.933594 176.472656 224.171875 C 177.050781 224.414062 177.617188 224.679688 178.171875 224.976562 C 178.722656 225.269531 179.257812 225.59375 179.78125 225.941406 C 180.300781 226.289062 180.804688 226.660156 181.289062 227.058594 C 181.773438 227.457031 182.234375 227.875 182.679688 228.316406 C 183.121094 228.761719 183.542969 229.226562 183.9375 229.707031 C 184.335938 230.191406 184.707031 230.695312 185.058594 231.214844 C 185.40625 231.738281 185.726562 232.273438 186.023438 232.828125 C 186.316406 233.378906 186.585938 233.945312 186.824219 234.523438 C 187.0625 235.101562 187.273438 235.691406 187.457031 236.289062 C 187.636719 236.890625 187.789062 237.496094 187.914062 238.109375 C 188.035156 238.726562 188.125 239.34375 188.1875 239.96875 C 188.25 240.589844 188.28125 241.214844 188.28125 241.839844 Z M 188.28125 241.839844 " fill-opacity="1" fill-rule="nonzero"/></g><g clip-path="url(#d0a9e6f23c)"><path fill="#169d53" d="M 182.925781 241.960938 C 182.925781 242.726562 182.851562 243.484375 182.699219 244.234375 C 182.550781 244.988281 182.328125 245.714844 182.035156 246.421875 C 181.742188 247.132812 181.382812 247.804688 180.957031 248.441406 C 180.53125 249.078125 180.050781 249.667969 179.507812 250.207031 C 178.964844 250.75 178.378906 251.234375 177.738281 251.660156 C 177.101562 252.085938 176.429688 252.445312 175.722656 252.738281 C 175.015625 253.03125 174.285156 253.25 173.535156 253.402344 C 172.785156 253.550781 172.023438 253.625 171.257812 253.625 C 170.492188 253.625 169.734375 253.550781 168.984375 253.402344 C 168.230469 253.25 167.503906 253.03125 166.792969 252.738281 C 166.085938 252.445312 165.414062 252.085938 164.777344 251.660156 C 164.140625 251.234375 163.550781 250.75 163.011719 250.207031 C 162.46875 249.667969 161.984375 249.078125 161.558594 248.441406 C 161.132812 247.804688 160.773438 247.132812 160.480469 246.421875 C 160.1875 245.714844 159.964844 244.988281 159.816406 244.234375 C 159.667969 243.484375 159.59375 242.726562 159.59375 241.960938 C 159.59375 241.195312 159.667969 240.433594 159.816406 239.683594 C 159.964844 238.933594 160.1875 238.203125 160.480469 237.496094 C 160.773438 236.789062 161.132812 236.113281 161.558594 235.476562 C 161.984375 234.839844 162.46875 234.253906 163.011719 233.710938 C 163.550781 233.167969 164.140625 232.683594 164.777344 232.257812 C 165.414062 231.835938 166.085938 231.476562 166.792969 231.179688 C 167.503906 230.886719 168.230469 230.667969 168.984375 230.519531 C 169.734375 230.367188 170.492188 230.292969 171.257812 230.292969 C 172.023438 230.292969 172.785156 230.367188 173.535156 230.519531 C 174.285156 230.667969 175.015625 230.886719 175.722656 231.179688 C 176.429688 231.476562 177.101562 231.835938 177.738281 232.257812 C 178.378906 232.683594 178.964844 233.167969 179.507812 233.710938 C 180.050781 234.253906 180.53125 234.839844 180.957031 235.476562 C 181.382812 236.113281 181.742188 236.789062 182.035156 237.496094 C 182.328125 238.203125 182.550781 238.933594 182.699219 239.683594 C 182.851562 240.433594 182.925781 241.195312 182.925781 241.960938 Z M 182.925781 241.960938 " fill-opacity="1" fill-rule="nonzero"/></g><g clip-path="url(#8416d7989b)"><path fill="#ffffff" d="M 215.390625 149.296875 C 215.390625 149.875 215.359375 150.453125 215.304688 151.027344 C 215.25 151.601562 215.164062 152.171875 215.050781 152.738281 C 214.9375 153.304688 214.796875 153.863281 214.628906 154.414062 C 214.464844 154.96875 214.269531 155.511719 214.046875 156.042969 C 213.828125 156.578125 213.582031 157.097656 213.308594 157.605469 C 213.035156 158.117188 212.738281 158.609375 212.417969 159.089844 C 212.097656 159.570312 211.753906 160.035156 211.390625 160.480469 C 211.023438 160.925781 210.636719 161.351562 210.226562 161.761719 C 209.820312 162.167969 209.390625 162.554688 208.945312 162.921875 C 208.5 163.289062 208.035156 163.632812 207.554688 163.953125 C 207.078125 164.273438 206.582031 164.570312 206.074219 164.84375 C 205.5625 165.113281 205.042969 165.359375 204.507812 165.582031 C 203.976562 165.804688 203.433594 165.996094 202.882812 166.164062 C 202.328125 166.332031 201.769531 166.472656 201.203125 166.585938 C 200.636719 166.699219 200.066406 166.78125 199.492188 166.839844 C 198.917969 166.894531 198.34375 166.921875 197.765625 166.921875 C 197.1875 166.921875 196.613281 166.894531 196.039062 166.839844 C 195.460938 166.78125 194.890625 166.699219 194.328125 166.585938 C 193.761719 166.472656 193.199219 166.332031 192.648438 166.164062 C 192.097656 165.996094 191.554688 165.804688 191.019531 165.582031 C 190.488281 165.359375 189.964844 165.113281 189.457031 164.84375 C 188.949219 164.570312 188.453125 164.273438 187.972656 163.953125 C 187.492188 163.632812 187.03125 163.289062 186.582031 162.921875 C 186.136719 162.554688 185.710938 162.167969 185.300781 161.761719 C 184.894531 161.351562 184.507812 160.925781 184.140625 160.480469 C 183.773438 160.035156 183.429688 159.570312 183.109375 159.089844 C 182.789062 158.609375 182.492188 158.117188 182.222656 157.605469 C 181.949219 157.097656 181.703125 156.578125 181.480469 156.042969 C 181.261719 155.511719 181.066406 154.96875 180.898438 154.414062 C 180.730469 153.863281 180.589844 153.304688 180.480469 152.738281 C 180.367188 152.171875 180.28125 151.601562 180.226562 151.027344 C 180.167969 150.453125 180.140625 149.875 180.140625 149.296875 C 180.140625 148.722656 180.167969 148.144531 180.226562 147.570312 C 180.28125 146.996094 180.367188 146.425781 180.480469 145.859375 C 180.589844 145.292969 180.730469 144.734375 180.898438 144.183594 C 181.066406 143.628906 181.261719 143.085938 181.480469 142.554688 C 181.703125 142.019531 181.949219 141.5 182.222656 140.992188 C 182.492188 140.480469 182.789062 139.988281 183.109375 139.507812 C 183.429688 139.027344 183.773438 138.5625 184.140625 138.117188 C 184.507812 137.671875 184.894531 137.246094 185.300781 136.835938 C 185.710938 136.429688 186.136719 136.039062 186.582031 135.675781 C 187.03125 135.308594 187.492188 134.964844 187.972656 134.644531 C 188.453125 134.324219 188.949219 134.027344 189.457031 133.753906 C 189.964844 133.484375 190.488281 133.238281 191.019531 133.015625 C 191.554688 132.792969 192.097656 132.601562 192.648438 132.433594 C 193.199219 132.265625 193.761719 132.125 194.328125 132.011719 C 194.890625 131.898438 195.460938 131.816406 196.039062 131.757812 C 196.613281 131.703125 197.1875 131.675781 197.765625 131.675781 C 198.34375 131.675781 198.917969 131.703125 199.492188 131.757812 C 200.066406 131.816406 200.636719 131.898438 201.203125 132.011719 C 201.769531 132.125 202.328125 132.265625 202.882812 132.433594 C 203.433594 132.601562 203.976562 132.792969 204.507812 133.015625 C 205.042969 133.238281 205.5625 133.484375 206.074219 133.753906 C 206.582031 134.027344 207.078125 134.324219 207.554688 134.644531 C 208.035156 134.964844 208.5 135.308594 208.945312 135.675781 C 209.390625 136.039062 209.820312 136.429688 210.226562 136.835938 C 210.636719 137.246094 211.023438 137.671875 211.390625 138.117188 C 211.753906 138.5625 212.097656 139.027344 212.417969 139.507812 C 212.738281 139.988281 213.035156 140.480469 213.308594 140.992188 C 213.582031 141.5 213.828125 142.019531 214.046875 142.554688 C 214.269531 143.085938 214.464844 143.628906 214.628906 144.183594 C 214.796875 144.734375 214.9375 145.292969 215.050781 145.859375 C 215.164062 146.425781 215.25 146.996094 215.304688 147.570312 C 215.359375 148.144531 215.390625 148.722656 215.390625 149.296875 Z M 215.390625 149.296875 " fill-opacity="1" fill-rule="nonzero"/></g><g clip-path="url(#c5f3d5ffd2)"><path fill="#169d53" d="M 209.609375 149.6875 C 209.609375 150.453125 209.535156 151.210938 209.386719 151.964844 C 209.238281 152.714844 209.015625 153.445312 208.722656 154.152344 C 208.429688 154.859375 208.070312 155.53125 207.644531 156.167969 C 207.21875 156.804688 206.734375 157.394531 206.191406 157.9375 C 205.652344 158.476562 205.0625 158.960938 204.425781 159.386719 C 203.789062 159.8125 203.117188 160.171875 202.410156 160.464844 C 201.699219 160.757812 200.972656 160.980469 200.21875 161.128906 C 199.46875 161.277344 198.710938 161.351562 197.945312 161.351562 C 197.179688 161.351562 196.417969 161.277344 195.667969 161.128906 C 194.917969 160.980469 194.1875 160.757812 193.480469 160.464844 C 192.773438 160.171875 192.101562 159.8125 191.464844 159.386719 C 190.824219 158.960938 190.238281 158.476562 189.695312 157.9375 C 189.152344 157.394531 188.671875 156.804688 188.246094 156.167969 C 187.820312 155.53125 187.460938 154.859375 187.167969 154.152344 C 186.875 153.445312 186.652344 152.714844 186.503906 151.964844 C 186.351562 151.210938 186.277344 150.453125 186.277344 149.6875 C 186.277344 148.921875 186.351562 148.164062 186.503906 147.410156 C 186.652344 146.660156 186.875 145.929688 187.167969 145.222656 C 187.460938 144.515625 187.820312 143.84375 188.246094 143.207031 C 188.671875 142.570312 189.152344 141.980469 189.695312 141.4375 C 190.238281 140.898438 190.824219 140.414062 191.464844 139.988281 C 192.101562 139.5625 192.773438 139.203125 193.480469 138.910156 C 194.1875 138.617188 194.917969 138.394531 195.667969 138.246094 C 196.417969 138.097656 197.179688 138.023438 197.945312 138.023438 C 198.710938 138.023438 199.46875 138.097656 200.21875 138.246094 C 200.972656 138.394531 201.699219 138.617188 202.410156 138.910156 C 203.117188 139.203125 203.789062 139.5625 204.425781 139.988281 C 205.0625 140.414062 205.652344 140.898438 206.191406 141.4375 C 206.734375 141.980469 207.21875 142.570312 207.644531 143.207031 C 208.070312 143.84375 208.429688 144.515625 208.722656 145.222656 C 209.015625 145.929688 209.238281 146.660156 209.386719 147.410156 C 209.535156 148.164062 209.609375 148.921875 209.609375 149.6875 Z M 209.609375 149.6875 " fill-opacity="1" fill-rule="nonzero"/></g></svg>